<svg id="Layer_1" data-name="Layer 1" xmlns="http://www.w3.org/2000/svg" viewBox="0 0 512 512"><defs><style>.cls-1{fill:#707070;}</style></defs><title>courier-handdrawn</title><path class="cls-1" d="M406.64,132.16l-5.69-1,.2-.09c.6,0,1.22,0,1.81,0,2.24.06,4.57-.06,6.74.18s2.76.76,1.13,1.07a6.11,6.11,0,0,1-1.09.09c-1,0-2-.08-3.11-.12l.35-.23ZM107.81,509.45h-5.18l-2.35-.11a42.54,42.54,0,0,1-9.27-1.6,41.61,41.61,0,0,1-16.35-9.28A39.79,39.79,0,0,1,62,473.26c-.08-1.51-.24-3.41-.16-4.59L62,465c.34-4.87.34-9.77,1-14.59L65.38,436c2.17-7.85,3.48-14,5.1-18.38s2.59-7.3,3.08-9a96,96,0,0,1,3.86-11.23c1.38-3.48,2.44-6.87,3.77-9.72.31-1-2.74,4.24-5.12,9-6.36,11.57-10.75,25.29-14,39.46l-1.7,10.84-.79,5.44-.28,5.49-.52,10.94a43.4,43.4,0,0,0,2.42,14.59,42.23,42.23,0,0,0,9.38,15.2,37.07,37.07,0,0,0,6.63,5.58c2.55,1.47.12.28-5-4.69-2.86-3.18-.31-.78-.23-.93a43.24,43.24,0,0,0,13.45,9.16A47.25,47.25,0,0,0,98,511.09c1.52.2,3,.24,4.41.34l3,.1,5.1.16,8.71.31,59.88-.68,7.8-.17c12.93-.74-18.69-1.69-51.7-1.68Zm313.89-4.84-2.91-.28-5.78-.57-46.3,0c-21.47-.15-35.73.13-53.17.27l-82.69.53c-2.3.14-7.24.39-10,.65-1.28.12.22.29,3,.4,8.52.34,24.27.65,26.24,1,4.06.73,27.13.5,42.85.63,13.36.11,21-.05,26.25-.39,5.5-.35,14.07-.68,24-1,4.05-.12,18.63-.19,22.5-.11,12.85.26,25.74.29,38,.25l17.91-.08a39,39,0,0,0,19.87-5.35,36.6,36.6,0,0,1-16.1,4.09C424.1,504.71,422.76,504.69,421.7,504.62ZM159.27,218.32c-1.08-1.94-2-4-3-6l0,0C157.17,214.42,158.2,216.38,159.27,218.32Zm89.28,153.1c.68.35.74.31.25-.07l-2.14-1.59c-.92-.69,0-.38.06-.52l12,7.26,3.66,2.4,9.31-5.06,22.63-14.37c1-.66,2.16-1.41,2.55-1.73,4-3.26-7.2,2.34-18.37,9.05l-16.12,9.66-32.61-19.79c-5.1-3.12-7.9-4.7-9.18-5.1-3-.92-5.75-1.71-8.08-2.23-.39-.09,1.4,1.22,3,2.28,7.89,5.32,17.51,10.71,26.38,16L246,370ZM267.34,22.8c3.95.3,7.24.72,7.93,1.12A30.26,30.26,0,0,0,279.79,25l3.67.65,4.21,1.15a68.8,68.8,0,0,1,9.28,2.81,67.17,67.17,0,0,1,8.78,3.59l6,2.92,4.6,2.7c2.74,1.57,4.88,2.68,6.5,3.81l6.5,4.24,7.89,6.59,5.84,6.24c2.3,2.64,4.24,5.54,5.13,6.7a112.76,112.76,0,0,1,19.11,50.54l-.48-10.18-1.1-9a115.51,115.51,0,0,0-15.41-31.91c-9.65-13.42-18.28-20.65-29.4-28a106.55,106.55,0,0,0-60-16.81c-1.75.24-5.51.68-7.57,1-1,.17.19.28,2.28.29A83.88,83.88,0,0,1,267.34,22.8ZM453.25,468.63a28.82,28.82,0,0,1-3,13.73,29.81,29.81,0,0,1-9.63,11.3,32.27,32.27,0,0,1-18.31,5.91c-3.39.06-4.17.13-3.16.31,3.77.65-16.82.71-31.15.88l-119.06.91-97.77.51-20.75,0-42.3-.15-5.29,0a39.7,39.7,0,0,1-6-.56,34.56,34.56,0,0,1-11.33-4.18,33.19,33.19,0,0,1-15.1-19.08,31,31,0,0,1-1.2-9.29l.56-7.16c.46-4.25.77-5.14,1.2-7.71.29-2.86.92-6,1.44-9.35a79.94,79.94,0,0,1,2.23-11,45.19,45.19,0,0,0-1.19,6.45c.56-4.17,1.94-8,2.82-11.84l1.47-5.62,2-5.3c1.34-3.47,2.48-6.93,3.93-10.2l4.73-9.51a149.14,149.14,0,0,1,25.32-34.55l1.52-2.17c6.71-6.81,14.06-13.19,26-21.47l-6,4.49c.56,0,3.76-1.94.53.65A189.19,189.19,0,0,0,117,361c-6.65,7-9.47,10.06-10.84,12.55-.54.87-2.73,3.85-5.38,7.41s-5.06,8.18-7.18,11.57c-9,17.47-5.13,12.14-5.34,13.4,0,.46.62-.4,1.09-.76l2.26-4.36,2.2-4.26,3.47-5.36c-1.31,2.23-2.68,4.21-3.7,6.24l-2.84,5.89a84.21,84.21,0,0,0-5.06,11.73l.23-1.57c-1.41,3.84-3.76,9.58-4.15,11.18-3.19,12.42-5.57,26.26-5.26,35.88-.05,6.4.47,2.63,1.14-5.35.48-4,1.59-8.95,2.45-14.27,1.08-5.29,2.9-10.75,4.2-15.94,8.58-25.61,24-49.67,45-67.4a128,128,0,0,1,15.81-11.94A154.06,154.06,0,0,0,115,372.19l.14.07c4.21-4.37,8.22-9,12.94-12.78l6.32-5.54,6-4.3,5.37-3.76c1.73-1.11,3.5-2,5.12-2.87l5.2-2.87a50.35,50.35,0,0,1,6.73-3.42l8.3-3.84c3-1.43,6.46-2.39,10-3.75,2.19-.73,4.43-1.7,6.84-2.34l7.43-1.88c.58-.17,1.2-.26,1.79-.41,0-2.52,0-5.06,0-7.52,0-3.4,0-6.85,0-10.29-5.46,1.07-11,2.32-16.63,3.94,2.49-1.1,4-1.42,5.4-2a57.41,57.41,0,0,0-5.51,1.61,186.33,186.33,0,0,0-42.88,18.85c-13.18,8.48-25.87,18.09-36.47,29.89l2.16-2.57a115.19,115.19,0,0,1,10.79-10.68c3.85-3.27,7.43-6.86,11.57-9.59,20.76-16.1,46-26.9,71.59-32,0-9.43,0-18.86.34-27.88.06-1.7.14-3.21.23-4.59a91.18,91.18,0,0,1-10.66-6.59,95.59,95.59,0,0,1-16.2-14.05l-6.15-6.8a124.15,124.15,0,0,1-23.2-40.49,86.55,86.55,0,0,1-3.27-11.16,77,77,0,0,1-2.22-11.43,76.49,76.49,0,0,1-1.16-11.63c-.16-3.86-.4-8-.28-11.32,0-1.5,0-3.12,0-4.65l-3.82-1.19-.3-.12c.25-.64.53-1.26.79-1.89,1.18.41,2.31.77,3.34,1.09,0-.95,0-1.88,0-2.84-.75-.23-1.53-.48-2.31-.75.34-.84.69-1.67,1-2.51l-.78,0,.1.1a2.87,2.87,0,0,1-1,.36,13.77,13.77,0,0,1-3.23-.1c-.77-.12-2-.14-3.2-.21l.32-.42c-3.33-.07-2-.51-1.84-.89-1.27,0-2.43.11-3.57.1a36.63,36.63,0,0,1-5.22-.23c-.35-.06-1.22,0-1.78,0s-1-.12-1.53-.18l.89-.23c-1.06-.17-1.61-.38-.62-.67.23-.07,0-.18,0-.28.13-.25.57-.51,2.66-.57,1.09,0,2.36-.58,2-.85-.56-.38,1-.74,3.17-.72,1.18,0,2.37,0,3.54,0a2.22,2.22,0,0,0,.69-.16,17.09,17.09,0,0,1,4.13-.39,4.15,4.15,0,0,1,.69.07,3.1,3.1,0,0,0,2.07,0c-.66-.24-1.32-.46-1.87-.69-.21-.09-.16-.2-.23-.3h2.4c.28,0,.54.08.8.08l2.75,0c0-.08,0-.17,0-.25h-.38c-.81,0-1.63,0-2.44,0-1.61,0-2.07-.09-1.86-.47l-2.3.18c-.48,0-1,.07-1.48.08-2.32,0-4.39.19-6.43.39-.69.07-1.62,0-2.44.07-1.28,0-2.57,0-3.83.09-2,.08-2.78-.06-2.4-.42a6.6,6.6,0,0,0,.66-.84c1,0,1.6-.16,1.35-.43l6.95-.11-.15,0c.34,0,.69.09,1,.09h7c.31,0,.63,0,.93,0,1.21,0,1.55,0,1.42-.14s1.1-.36,2-.44c.73-.06,1.54-.09,2.3-.13,0-2.27,0-4.49,0-6.78,0-4.86.39-10.77.77-16.08.95-5.38,1.28-10.87,2.84-16a123.81,123.81,0,0,1,14-35.06A121.25,121.25,0,0,1,176.11,33.6,125.11,125.11,0,0,1,255.84.24c5.65-.52,12.23-.06,16.82.12A123,123,0,0,1,317.14,12a120,120,0,0,1,33.94,24.07c1.78,1.56,3.56,3.83,5.71,6.17a78.94,78.94,0,0,1,6.55,7.95A128.48,128.48,0,0,1,375.1,68.7l-.43-1.33c2.16,4.08,3.86,6,6.69,12.78a113.2,113.2,0,0,1,8.88,44c0,2.28,0,4.79,0,7.43a6.15,6.15,0,0,0,.72.18c.26,0,.87,0,1.33,0,0-.08.15-.18,0-.24-.63-.2-.46-.3.86-.31a33.67,33.67,0,0,1,5.12.08c.32.05.68.15.62.21a12.16,12.16,0,0,1-1.34,1.12,3.54,3.54,0,0,1-1.74.17c-1.83,0-3.69-.06-5.54-.08,0,.73,0,1.5,0,2.26l.85-.27c1-.35.86,0-.86.92,0,.26,0,.5,0,.76,1,0,2,.06,3,0a3.76,3.76,0,0,1,1,.13,1.55,1.55,0,0,1,.5.4L396,137l-.42.13c1.08,0,2-.09,2.9-.08s1.78.08,2.77.13l.17-.19,2.17,0-.48.06c0,.17.27.32,0,.42a8,8,0,0,1-1.62.16c-.63,0-.89,0-1.08.15a8.41,8.41,0,0,1-1.48.27c-1.28.22-.86.5-.94.77,0,.09,0,.19.08.32l1.06.12-1.76.18.1-.17c-.27,0-.68,0-.79,0-.85.19-1.78.37-2.42.59-.85.29,1,.64,2.45.67,1.82,0,3.68,0,5.53,0,.76,0,1.52,0,2.32.05l-3.7.12v.08c.41,0,.82,0,1.23,0A6.89,6.89,0,0,1,404,141a8.46,8.46,0,0,0,2.26.13,14.43,14.43,0,0,1,3.87.13c.34.11.05.29.05.43h3.51l-1.69,1.08.7.07c-2.09.1-1.05.57-2.77.74l1.66.17c-.55.15-1.19.25-.88.49s-.79.42-1.13.64c-.14.09.14.2.07.29a.71.71,0,0,1-.58.33,7,7,0,0,1-2.7.16,4.08,4.08,0,0,0-.66,0,56.09,56.09,0,0,1-6.71-.05c-1.44-.09-3.08-.08-4.62-.07-.83,0-1.65,0-2.47.06-.3.19-.58.38-.92.58s-.61.19-.92.29c-.06,5.71-.15,11.75-.28,17.93-.19-1.41-.37-2.82-.71-4.26-.1,5.36-.5,10.36-.71,14.15-.52,3.85-1.09,6.84-1.49,9.15-.73,4.63-1.58,6.42-1.79,6.81-.53.76.36-4.25,0-5.26a121.71,121.71,0,0,1-17.88,45.06A129.55,129.55,0,0,1,343,257.51,131.6,131.6,0,0,1,321,272.06c0,.53,0,1.05,0,1.6,0,4.85,0,9.94-.25,15-.08,1.53,0,7.28.11,8.88.28,3.91.62,7.3,1,9.47a58.59,58.59,0,0,1,.39,9.63c2.68.3,3.63.34,2.09-.24,35.68,7.26,68.05,25.74,91.41,52.52l-1.63-1.6c3.73,3.81,6.48,8.36,9.87,12.51a155.33,155.33,0,0,1,23.5,48.59c2.64,8.67,4,17.66,5,26.63ZM379,140.43c-.8.17-1.69.32-2.66.46q0,2.93,0,5.89c.91-.07,1.81-.14,2.66-.25C379,144.45,379,142.43,379,140.43ZM265.78,13.34a1.82,1.82,0,0,0,.5.14c33,1,65.35,17.13,85.67,43.29a122,122,0,0,1,15.69,26c1.79,4.69,3.25,8.57,4.24,11.75l1.77,7.46c.82,3.53.53,4.38,0,3.18a145.56,145.56,0,0,1,2.63,28.38c0,1.2,0,2.44,0,3.66.9-.06,1.8-.14,2.67-.26,0-2.87,0-5.62,0-8-.09-3.15-.2-7.18-.25-8.75a60.89,60.89,0,0,0-.91-11.32c-.34-3.28-1.36-7.07-3.61-14.64.73,4.14,1.83,8.2,2.21,12.21s.91,7.82.86,11.3a6.63,6.63,0,0,1-.44,3c0-5-1.15-10-1.82-14.95a135.39,135.39,0,0,0-3.88-14.51c-1.23-3.22-2.06-6.5-3.42-9.41A122.91,122.91,0,0,0,351.5,55.28c-6.78-7.84-14.16-15.28-22.77-21.13a111,111,0,0,0-27.55-14.27c-4.81-2-9.94-3-14.94-4.31-2.54-.53-5.12-.81-7.68-1.23a51,51,0,0,0-7.73-.82ZM186.51,137.23c9-5.84,15.61-11.06,23.45-14.7a113.75,113.75,0,0,1,16.61-6.6c13.41-4,26.55-6.5,39.49-6.28A145.26,145.26,0,0,1,303,116.49a106.38,106.38,0,0,1,26.51,13c6.43,4.21,12.76,8.54,19.57,11.81a53,53,0,0,0,21.35,5.65c1.32.05,2.58,0,3.8,0V141.1a40.65,40.65,0,0,1-14.13-1.68c-10.8-3.06-23.72-11.28-20.3-8.21,2.52,2.08-.22.79-6.34-2.94-3.08-1.85-7-4.42-12-7A129.73,129.73,0,0,0,304.65,114a136.92,136.92,0,0,0-43.15-7.86,64.85,64.85,0,0,0-8.56.93,189.45,189.45,0,0,0-21.74,4.64,140.81,140.81,0,0,0-26.56,10.42c-2.81,1.42-6.11,3.51-7.42,4.25-8.94,5.07-8.51,5.57-20.91,12.88,7-2.95,13.75-7.2,19.59-10.44a6.13,6.13,0,0,1,2.68-1c-8.12,5.27-15.94,10.93-24.56,14.76a58.63,58.63,0,0,1-8.88,3c-.58.17-1.19.21-1.78.35,0,.16,0,.34,0,.5.9-.21,1.82-.31,2.71-.58,9.16-2.67,14.41-6.14,17.5-7.67C186.59,136.44,187.37,136.25,186.51,137.23Zm8.61-101.88a73.33,73.33,0,0,1,8.54-5.68l4.07-2.48,4.19-2,.43-.15-4.64,2.33-8,5a139,139,0,0,1,16.67-8.91c3.75-1.81,7.51-3,11.06-4.45,3.63-1.24,7.31-2.11,11-3.19C229.6,17.2,210.29,23.17,195.12,35.35Zm-43.34,99.36a32.29,32.29,0,0,0,4.62,0l-.87-.17a35.86,35.86,0,0,0,4.81-1.25c-.08-3.65,0-8.64.42-14.8a102.84,102.84,0,0,1,36.11-68.68,95.91,95.91,0,0,1,26.94-15.71C231,31.81,234.26,31,230,33c-.83.38-3.11,1.29-5.18,2.08a97.32,97.32,0,0,0-34.57,24.48l-4.41,4.38c-1.53,1.68-3.07,3.71-5,6.08a36.22,36.22,0,0,0-3.57,5.37,62.6,62.6,0,0,0-4,7c.15.06-.4,1.66.6-.14,3.72-5.8,2.45-4.3-3.31,8.7-3.59,8.57-5.43,18-6.57,27.31-.31,4.24-.43,9.06-.5,14l.58-.18c8.91-3,18.25-10.1,30.83-17.56,9.59-5.59,24.85-11.78,40.21-14.86l-3.93,1.78a134.53,134.53,0,0,1,22.15-3.6c4.48-.31,6.45-.2,6.89-.06.84.28-4.16.95-5,1.43,2.1-.2,4.14-.32,6.4-.4,2.61-.05,4.52.08,6.6.19,4,.26,7.91.7,11.72,1.27a144.7,144.7,0,0,1,22,5,138.14,138.14,0,0,1,16.51,6.27c2.67,1.21,5.4,2.55,8.19,4.14,2.63,1.53,5.15,3.1,7.43,4.62,9.22,6.16,16.81,11.44,23.9,14.28,3.12,1.54,11,3.18,16.19,2.77v-7.6c0-3.84-.37-7.73-.48-11.34-1.46-14.68-3.26-18.63-3.06-17s-1-1.67-2.34-6.6c-1.86-4.78-4.17-11.3-6.95-16.27a113.5,113.5,0,0,0-28.82-35.63A111.68,111.68,0,0,0,252,18.8a108.2,108.2,0,0,0-36.16,10.34,128.68,128.68,0,0,0-14.1,7.93,121.66,121.66,0,0,0-24.36,22.15,105.29,105.29,0,0,0-16.76,29l-2.28,6c-.85,2.23-1.32,4.42-1.64,5.22a54.84,54.84,0,0,1-2.26,5.6c-.45,2.18-.76,4.59-1.21,7.22l-.66,4.12-.27,4.52c0-1.41-.07-2.59.07-5.11C151.84,122.42,151.76,128.68,151.78,134.71Zm.06,16.73v0c0,1,0,2,0,3a49.43,49.43,0,0,0,10.75-.9c-.15-1-.3-2-.44-3-.53.09-1.07.19-1.59.25A49.22,49.22,0,0,1,151.84,151.44Zm9.77-4.7-.07-.52a44.31,44.31,0,0,1-9.71.87c0,.2,0,.4,0,.6A47.13,47.13,0,0,0,161.61,146.75Zm-16.8-13c.85.18,1.69.33,2.53.46,0-2.18,0-4.18,0-5-.21-10.6.6-22.41,2.56-30.29,1.08-5.32,0-2.34-2,4.28-.83,3.34-1.47,7.66-2.29,12.25-.34,4.61-.74,9.66-.8,14.14C144.83,131,144.82,132.41,144.82,133.78Zm2.7,17.49c0,.91,0,1.85-.06,3,.73.08,1.49.08,2.23.13,0-1.15-.08-2.11-.12-3C148.89,151.38,148.21,151.33,147.52,151.26Zm1.81-3.79c0-.19,0-.36-.06-.52-.56,0-1.11-.14-1.67-.2,0,.14,0,.35,0,.56C148.17,147.37,148.75,147.43,149.32,147.47Zm-2.09,3.76c-.81-.08-1.62-.19-2.43-.3,0,1,0,2,0,2.94.82.13,1.62.29,2.46.38C147.26,153.21,147.25,152.22,147.23,151.23Zm-2.45-4.82c0,.21,0,.43,0,.64.79.13,1.59.13,2.39.22v-.58C146.36,146.6,145.57,146.55,144.78,146.41Zm28.13,101.27A123.49,123.49,0,0,1,140.56,183l-.72-3.59c.45,3.23.34,6.12,1.36,9.81A127.85,127.85,0,0,0,153,220.76,137.22,137.22,0,0,0,164,237.46a101.36,101.36,0,0,0,7.71,9.24ZM217.23,272c4,1.72.45.79.34,1.05,12.48,5,25.64,8.42,44.86,8.75l-11.26.53c-3.66,0-7.28-.32-11.11-.5l9.24,1.55c-13.87-1.73-17.23-2.94-20.15-3.26-1-.13-1.91-.27-3.09-.53,0,.08,0,.12,0,.2s0,.31,0,.47c2.7.85,5.4,1.52,8.28,2.36-2.83-.64-5.87-1.24-8.26-1.81.17,4.66.77,7.39.28,15.24,0,.73,0,2.77,0,4,.05,5.57.1,11,.16,16.44l0,7.92-.09.21.1.21,11.13,6.84,12.13,7.27,10,5.92,2.38,1.4.1,0,.17,0,.11-.11.05,0,0,0,.55-.34,32.67-19.58,1.62-1,.83-.5,0,0a.1.1,0,0,0,0-.09l0-.11-.09-.09,0,0h0v-.56c0-3,0-6.11,0-9.1.08-6,.25-11.6.51-16,.24-4.1.25-11.65.37-17.63l-.19.6c0-.24-.07-.42-.1-.63-2.79.87-5.55,1.64-7.93,2.12a76.84,76.84,0,0,1-10.49,1.79l-5,.64-5.06.19a82.8,82.8,0,0,0,12-1.81,70.59,70.59,0,0,1-14.52.89c-2-.13-.47-.44,6.11-1.08,3-.33-.44-.32.19-.56a69.78,69.78,0,0,1,7.74-1.81A79.37,79.37,0,0,0,292,279c2.14-.62,4.58-1.17,7.23-2.05l8.75-3.27c13.46-5.37,26.38-16.23,22-13.74-3.15,1.78-.54-.47,5.43-5.33,3.09-2.3,6.46-5.94,10.61-9.77a147.85,147.85,0,0,0,12-14.52,115.75,115.75,0,0,0,18.76-41.08,45.08,45.08,0,0,0,1.4-8.72,163.51,163.51,0,0,0,1-22.9c0-2.74-.08-5.56-.11-8.38-1,.18-1.94.32-2.66.42,0,.75,0,1.5,0,2.25,1.64,28.85-5.91,55-20.34,76.09-4.74,7.23-12.78,15.75-20.56,22.46a116.12,116.12,0,0,1-42.2,22.12c-3,.77-5.83,1.61-8.45,2.13l-7.2,1.1a65.83,65.83,0,0,1-10.26.75c-5,.11-6.2-.08-3.83-.56,3.47-.7,5.3-1.34,8.15-2.09a117.76,117.76,0,0,0,13.66-2.15c2.91-.9,4-1.39,2.49-1.27a111.73,111.73,0,0,0,67.63-47.44,14.86,14.86,0,0,1-.89,1.56c2.26-3.52,4.62-7,6.63-10.69a111.62,111.62,0,0,0,12.37-40.81l.54-10.72,0-10.88v-1.25a52.78,52.78,0,0,1-20.63-3.43,98.58,98.58,0,0,1-18.8-9.95c-5.88-3.77-11.51-7.78-17.46-10.86a123.31,123.31,0,0,0-18.87-7.58l1.69.44a115.78,115.78,0,0,0-11.74-3.48,139.3,139.3,0,0,0-20.59-3.2c-6.84-.66-13.76.2-20.65,1.2A131.88,131.88,0,0,0,207.58,126c-3.21,1.68-6.45,3.73-9.41,5.66-12.1,8-15.9,10-14.28,9.49,2.76-1.1-9.19,7-20.67,9.29,0,1.14-.08,2.24-.13,3.12a69,69,0,0,0,18.3-6.59c3.11-1.24,5.88-2.38,9-3.91,2.89-1.41,6.18-3.19,9.55-5-6.85,4.41-14.7,10.26-24.92,14.31a60.41,60.41,0,0,1-16.49,4.13c-2.22.14-4.47.17-6.72.12A144.89,144.89,0,0,0,154,185l.88,1.89c1,3.57,1.6,7.28,3.22,11.18l2.3,6.34c1,2.2,2.14,4.51,3.34,7.06l-2.64-5.18c-.16.44.85,3.21-.75.37a95.61,95.61,0,0,1-6.53-18.54,62.31,62.31,0,0,1-1.74-8.42,42.25,42.25,0,0,0-.93-4.44,38.18,38.18,0,0,1-.85-7.23c-.3-3.52-.56-7.67-.57-10.92,0-.2,0-.36,0-.56-.78,0-1.56-.15-2.34-.23l-.06,3.27c0-1.17,0-2.2-.05-3.28-.83-.09-1.66-.17-2.48-.3,0,2.61,0,5.19,0,7.82a120.27,120.27,0,0,0,5.92,35,110.26,110.26,0,0,0,5.49,13.56,115.87,115.87,0,0,1-10.06-30.69l-.14.06a49,49,0,0,0,1.54,7.77l2,7.67a172.31,172.31,0,0,0,9.52,22.7,101.62,101.62,0,0,0,17.15,23.61c2.61,3.13,6.2,5.82,9.51,9,3.51,2.9,7.33,5.63,11,8.25A185.6,185.6,0,0,0,217.23,272Zm101.54,16.28c.09-4.81,0-10.27,0-15.15-1.06.51-2.11,1-3.17,1.46,0,1.78.09,3.64.14,5.3l.52,23.09c.07,4.29.14,8.66.2,13l2.69.32-.1-7C318.9,302.36,318.62,296.74,318.77,288.26Zm-2.28,30.42c0,2,.06,4,.1,6.09q1.25.15,2.67.35l-.08-6C318.27,319,317.36,318.81,316.49,318.68ZM311.66,332l-3.39,2.06-1.88,1.2c.1,0,.18,0,.26,0l5.23-3.11v-4.58l-.25,0Zm.23-5.15v-.07l-.26,0v.09Zm0-2.63,0-6.2-.32,0,0,6.2Zm0-8.77.08-24.06c0-4.88,0-9.8-.07-14.71,0-.17,0-.29,0-.46l.06,0-1.09.45c.17-.07.37-.1.54-.17l0,.63.16,38.32Zm-28.2,33.61-6,3.78c4.13-2.38,6.53-3.69,7.92-4.58l9.47-6.19c-3.9,2-12,6.85-19.74,12l8.12-4.92Zm-55.59-8.91-.7,0c1.4.84,3.5,2.15,4.08,2.44,4.58,2.31,9.57,4.87,13.09,6.48,4.7,2.16-4.54-4.21-12-8.74l-16.5-10c-2,.25-3.87.52-5.76.84a8.52,8.52,0,0,0,.2,1.57,3.61,3.61,0,0,1,.08.66c1.46.67,5.4,2.88,8,4.25,6.85,3.61,5,1.81,5.65,1.6.24-.07,0-.45-.06-.78L219,335.08ZM199.3,294.82l-.51,9.16a174.25,174.25,0,0,1,18.53-2.44c0-1.45,0-3,0-4.71,0-5.46-.18-12.31,0-17.77a84.61,84.61,0,0,1-9.43-3.41c-1.79-.66,1.6,1.21.58.93a33.42,33.42,0,0,1-7.51-3l-1-.61c0,1.08,0,2.18,0,3.11-.08,6.1-.16,12.09-.24,18.73l-.46-2.1Zm18-17.8c0-.05,0-.11,0-.17-1.25-.45-2.61-.95-4.21-1.55C214.63,276,216,276.49,217.34,277Zm5.37,25.52c0-1.77.07-3.57.1-5.35l-.21-.68-.27,24.33.48,0q0-4.67,0-9.36C222.77,308.47,222.74,305.52,222.72,302.54Zm-25,21.85a106.25,106.25,0,0,1,11.3-2.15c0-2.64,0-5.53,0-9.28l.13,2.9c.33-.17.63-1.63.84,0,.11.92.2,3.47.26,6.2l.59-.09c1.8-.34,3.56-.53,5.3-.7v-.2c0-4.57.07-9.13.11-14l.16,14.14.3,0c0-4.46.06-7.87.34-10.73.16-1.59.23-3.83.26-6.58a187.4,187.4,0,0,0-18.65,2.53l-.31,5.56-.48,8.57ZM117.1,378.74c2.32-2.53,4.63-4.43,7.34-7.37,3.76-4.41,8.61-7.87,12.91-11.93,4.75-3.52,9.44-7.23,14.46-10.31l9.06-5.38c3.07-1.68,6.32-3,9.48-4.56a83.62,83.62,0,0,1,11.79-4.56l1.45-.74-9.13,3.21-8.78,4.06a61.84,61.84,0,0,0-8.56,4.49c-2.77,1.65-5.62,3.18-8.34,4.92-10.61,7.32-20.73,15.48-29.25,25.2A33.61,33.61,0,0,0,117.1,378.74Zm86.25,118.08c-11-.33-34.94-.28-58.49.12l24.05,0,.55,0-17.94.16,23.18.15Zm22.3-13.29,18.44-.07c9.09-.13,19-.2,29-.23-.07-8.4-.21-17,.2-24.56.1-1.86.3-4,.42-3.65.75,2.22,1.5,5,2.24,7.91.32,1.27.4,4.42.35,10.28,0,3.32,0,6.67,0,10h7.42c0-.31,0-.63.07-.79a14.22,14.22,0,0,1,.79-2.94c0-2.18.07-4.77.12-7.85l.25,2.49c-.06-6.39-.11-11.82-.17-17.15,0-5.08.06-11.15,2.28-17,0-.42,0-.72,0-1.13a37.84,37.84,0,0,1,7-11.93c-1.6,2.18-2.18,3.14-1.77,2.51.38,0,1.52-1,.69.48a50.3,50.3,0,0,0-4.45,8.94c-1.34,3.63-1.54,5.32-1.51,6.44a68.74,68.74,0,0,0-.14,9c.43,7.56,1,5.08,1.53,5.55.19.17.38-.24.64-.45,0-.47.1-2.55.24-6.29.14,4.05.23,6.86.35,10.4l-.34-.6c0,1.6,0,4,0,4.66.38,5,.75,10.49,1.18,14.26.57,5,1.28-5.94,1.34-14.44,0-5.33.08-10.72.11-16.12a32.5,32.5,0,0,1,3.65-13.89,30.43,30.43,0,0,1,7.59-9.35,31.82,31.82,0,0,0-9.85,16.15l.15,0a29.93,29.93,0,0,1,2.28-5.87,23.45,23.45,0,0,1,5.86-7.75,45,45,0,0,1,9.42-6.38,31.24,31.24,0,0,1,10-2.89,62.66,62.66,0,0,1,10.12.23c2,.23.32.58.32.87h20.73l-10,2.16,4.15.14c-12.35.21-6.22,1.15-16.33,1.47l9.81.33c-3.22.29-7,.51-5.17,1,1.46.37-4.64.85-6.66,1.29-.81.18.84.4.39.59a7.72,7.72,0,0,1-3.42.66c-3.92.28-4.79.9-9.7,2.18a13.16,13.16,0,0,0-2.09,1,24,24,0,0,0-8.22,8.52,23.18,23.18,0,0,0-2.18,5.46,27.83,27.83,0,0,0-.6,2.92c0,1.18-.21,1.6-.2,3.58-.17,8.48-.16,18.19-.13,27.26,0,.76,0,1.51,0,2.27,14.39.08,27.89.25,38.53.49l34,.28c0-1.67.06-3.35.09-5l.83,1.9c.14-19.64,1-11.7,1.77-10.89,0-3.76-.1-7.35-.14-10.85s0-7.35-.19-9.17c-.52-7.21-4.94-13.94-9.8-18a21.74,21.74,0,0,0-6.36-3.41,29.77,29.77,0,0,0-6-1.74,26.7,26.7,0,0,1,3.76.19c-4.27-1.27-6.83-1.56-2.38-1.82,1,0-.08-.38.16-.53a4.43,4.43,0,0,1,2.81-.18,22.08,22.08,0,0,1,9,3.4c4.4,2.58,9,7,8.22,5.17-.56-1.33.56-.59,2.57,1.78a26,26,0,0,1,5.2,12.3,57.76,57.76,0,0,1,.44,9.77c0,3.49,0,7,0,10.44a35.69,35.69,0,0,0,.31,4.07c.24,2,.49,7,.64,12.38l2.68-.17c-.09-6.41-.17-12.53-.25-18.44-.27-6.22,0-12.49-.95-18.15A37,37,0,0,0,382,434.19a34.93,34.93,0,0,0-16.19-13.85,40.88,40.88,0,0,0-11.43-2.78c-2.23-.25-2.82-.53-1.71-.84,1.62-.41,2.56-1,4-1.4,5.8.68,9.44,2.16,8.22,1.08a38.45,38.45,0,0,1,25.4,32.07l-.23-.9c.18,2.1.15,4.32.14,6.32v29.63c2.32-.14,5-.26,9-.3l23.63-.15A15.67,15.67,0,0,0,434,477.82a12.38,12.38,0,0,0,2.51-4.19,15.14,15.14,0,0,0,.67-2.71l.12-1.49-.12-2.75-.56-11.93-1.83-12.14,1.5,4.26a98.7,98.7,0,0,0-3-14.13l-1.27-5.1-1.37-3.85c-1.58-4.46-2.12-6.35-2.12-6.82,0-1,2.2,3.76,2.9,4.53a145.94,145.94,0,0,0-25.55-43.15c-16.52-19-39.18-34.38-59.82-42.13-2.31-.82-6.36-2.41-10.85-3.78l-13-3.23c0,3.52-.09,6.64-.23,8.63a16.84,16.84,0,0,1-2.49,1.13c-.69.21-3.21,1.53-6.08,3.06l-4.12,2.18-2.64,1.29c-1,.46-1.58.62-1.21.26.8-.78,2.34-2,3-2.59l11-6.76-.11-7.69-2.67-.42c0,2.16,0,4.33.07,6.58l-16,9.79L287,353.23l-7,4.25-17.56,10.34-8.55-5.19-7.15-4.21c-1.31-.75-4.34-2.77-5-3.31a14.7,14.7,0,0,1-2.17-2.22l-6.8-4.22,2.31,1.09-15.1-8.87-10.72-6.61c0-.9,0-1.9,0-2.85-6,1.09-12.46,2.71-23.41,5.67l-8.63,3a157.07,157.07,0,0,0-39.75,24.1,136.88,136.88,0,0,0-30.22,34.94c-2.92,4.06-4.82,8.88-7.32,13.51s-3.9,9.87-6,14.87c-1.32,5.24-3,10.44-4,15.78-.65,5.39-2.09,10.65-2.05,16l-.49,9.42a13.66,13.66,0,0,0,.85,5.24,14.46,14.46,0,0,0,6.82,7.7,16.09,16.09,0,0,0,5.13,1.69,20.17,20.17,0,0,0,2.92.22l5.19,0,20.79-.05Zm79.57-48.45A26.07,26.07,0,0,1,309.8,431a22.79,22.79,0,0,1,3.27-1.71l.33-.4a25.91,25.91,0,0,0-14.51,16.65l-.13,1.14,1.22-2.81A26.78,26.78,0,0,1,305.21,435.08ZM451,466.19l-.65-11.41c-3.9-35.2-18.9-64.82-40.22-87.08l-5.81-6.08c-2.17-2-4.58-4-7-6.14-4.61-4.41-10.21-8-15.19-11.67a159.1,159.1,0,0,0-52.84-22.69c-2.5-.57-4.82-1-7.06-1.46,0,1.94,0,3.93,0,5.93a138,138,0,0,1,20.47,5.29c7.61,2.3,15.44,5.85,21,8.06,5.41,2.46,8.35,3.95,6.09,2.24-3.34-2.41.15-.78,7.95,3.48,3.76,2.32,8.4,5.62,13.7,9.46,4.91,4.32,10.78,8.9,16,14.89a153,153,0,0,1,28.59,43.78c1.34,3.54,2.94,7.24,3.92,9.46,1,2,2,5.61,3.29,10.11.61,2.26,1.45,4.72,2,7.4l1.46,8.49c1.3,5.84,1.26,12.16,1.72,18.13a24.64,24.64,0,0,1-2.82,14.7,23.43,23.43,0,0,1-6,7.17,28.18,28.18,0,0,1-10.76,5.19,27.83,27.83,0,0,1-6.07.92l-11,.28c4.95.14,10.27.72,14.49.35a27.48,27.48,0,0,0,11.93-4,14.73,14.73,0,0,1,3-1.61,28.6,28.6,0,0,1-15.81,7c-5.82.4-12.16.11-18.18.19l-12.19-.16-151.81.25-6.16.06a2.56,2.56,0,0,0,.61.11l121.16.15L396,497c12.3,0,20.21,0,24.65.17s5.35.14,3.81.65c13.75-1.44,22.59-10.51,25.59-20.64A28.36,28.36,0,0,0,451,466.19ZM281.62,423.73a54,54,0,0,0-6.48,13.53l-.25,1.67a50,50,0,0,1,30.9-32.13l2.58-1.05-2.45,1.39a48.78,48.78,0,0,1,12.15-3c2-.27,4-.24,6-.34l4.47,0c2,0,4.86-.08,6.41-.18,9.64-.62,5.38-1.67-6.68-2.14-1.71,0-3-.15-5.1-.12a46.6,46.6,0,0,0-6.85.5,48,48,0,0,0-13.42,3.9A52.1,52.1,0,0,0,281.62,423.73ZM230.81,258c8.74,2.24,11.27,2.25,8.9,1.29-1.18-.52-3.56-1.32-7-2.38l-5.68-2.35a47.41,47.41,0,0,1-6.89-3.16c-21.06-10.24-39.81-29.15-48.92-51.66-1-3-2.25-6-3.26-9.13-.76-3.17-1.7-6.32-2.38-9.5l-.5-2.11a99.36,99.36,0,0,0,9,29.37,107.44,107.44,0,0,0,17.78,25.45l2.92,2.51L191.62,234a97.39,97.39,0,0,0,28,19.63C222.92,255.54,228.1,257,230.81,258Z"/></svg>